<svg width="100" height="100" viewBox="0 0 100 100" fill="none" xmlns="http://www.w3.org/2000/svg">
<circle cx="50" cy="50" r="50" fill="#EDF0FE"/>
<path d="M19.0341 67V32.0909H26.4148V46.4943H41.3977V32.0909H48.7614V67H41.3977V52.5795H26.4148V67H19.0341ZM73.7841 42.1307C73.6477 40.7557 73.0625 39.6875 72.0284 38.9261C70.9943 38.1648 69.5909 37.7841 67.8182 37.7841C66.6136 37.7841 65.5966 37.9545 64.767 38.2955C63.9375 38.625 63.3011 39.0852 62.858 39.6761C62.4261 40.267 62.2102 40.9375 62.2102 41.6875C62.1875 42.3125 62.3182 42.858 62.6023 43.3239C62.8977 43.7898 63.3011 44.1932 63.8125 44.5341C64.3239 44.8636 64.9148 45.1534 65.5852 45.4034C66.2557 45.642 66.9716 45.8466 67.733 46.017L70.8693 46.767C72.392 47.108 73.7898 47.5625 75.0625 48.1307C76.3352 48.6989 77.4375 49.3977 78.3693 50.2273C79.3011 51.0568 80.0227 52.0341 80.5341 53.1591C81.0568 54.2841 81.3239 55.5739 81.3352 57.0284C81.3239 59.1648 80.7784 61.017 79.6989 62.5852C78.6307 64.142 77.0852 65.3523 75.0625 66.2159C73.0511 67.0682 70.625 67.4943 67.7841 67.4943C64.9659 67.4943 62.5114 67.0625 60.4205 66.1989C58.3409 65.3352 56.7159 64.0568 55.5455 62.3636C54.3864 60.6591 53.7784 58.5511 53.7216 56.0398H60.8636C60.9432 57.2102 61.2784 58.1875 61.8693 58.9716C62.4716 59.7443 63.2727 60.3295 64.2727 60.7273C65.2841 61.1136 66.4261 61.3068 67.6989 61.3068C68.9489 61.3068 70.0341 61.125 70.9545 60.7614C71.8864 60.3977 72.608 59.892 73.1193 59.2443C73.6307 58.5966 73.8864 57.8523 73.8864 57.0114C73.8864 56.2273 73.6534 55.5682 73.1875 55.0341C72.733 54.5 72.0625 54.0455 71.1761 53.6705C70.3011 53.2955 69.2273 52.9545 67.9545 52.6477L64.1534 51.6932C61.2102 50.9773 58.8864 49.858 57.1818 48.3352C55.4773 46.8125 54.6307 44.7614 54.642 42.1818C54.6307 40.0682 55.1932 38.2216 56.3295 36.642C57.4773 35.0625 59.0511 33.8295 61.0511 32.9432C63.0511 32.0568 65.3239 31.6136 67.8693 31.6136C70.4602 31.6136 72.7216 32.0568 74.6534 32.9432C76.5966 33.8295 78.108 35.0625 79.1875 36.642C80.267 38.2216 80.8239 40.0511 80.858 42.1307H73.7841Z" fill="#4C6EF7"/>
</svg>
